<?xml version="1.0" encoding="UTF-8"?> <svg xmlns="http://www.w3.org/2000/svg" xmlns:xlink="http://www.w3.org/1999/xlink" version="1.1" id="Layer_1" x="0px" y="0px" viewBox="0 0 320 320" style="enable-background:new 0 0 320 320;" xml:space="preserve"> <style type="text/css"> .st0{display:none;fill:#2C2C2E;stroke:#2C2C2E;stroke-miterlimit:10;} .st1{fill:#none;} .st2{fill:none;} .st3{fill:#2C2C2E;stroke:#2C2C2E;stroke-width:5;stroke-miterlimit:10;} .st4{fill:#2C2C2E;} </style> <rect class="st0" width="320" height="320"></rect> <g> <rect x="38.6" y="63.3" class="st2" width="135.3" height="187.3"></rect> <path class="st3" d="M64.2,133.2c-4.2-8.1-6.3-16.2-6.3-24.4c0-7.3,1.7-14,5-20S71.3,78.2,77.9,75s19.5-4.7,38.7-4.7h42.3v177.9 h-47.7c-17.6,0-30-2.2-37.1-6.7c-7.2-4.5-12.7-10.4-16.6-17.9c-3.9-7.5-5.8-15.5-5.8-24c0-10.2,2.8-19.4,8.4-27.5 c5.6-8.1,14.7-13.9,27.3-17.4C76.2,148.4,68.5,141.2,64.2,133.2z M138.1,165.6h-15.3c-13.8,0-23.8,1.7-30.3,5.1 s-11.3,7.8-14.6,13.2S73,195.1,73,201.5c0,7.9,2.5,14.7,7.6,20.4c5.1,5.8,14.5,8.6,28.3,8.6h29.1V165.6z M138.1,88.3h-26.8 c-12.3,0-20.8,2.4-25.6,7.1c-4.8,4.7-7.1,10.4-7.1,17.1c0,6,1.5,11.9,4.5,17.6c3,5.7,7.1,10.1,12.2,13.1c5.1,3,12.7,4.5,22.9,4.5 h19.9V88.3z"></path> </g> <g> <rect x="184.5" y="62.9" class="st2" width="92.4" height="50"></rect> <path class="st4" d="M199.2,87.5v2.6c-1.6,0.4-2.8,0.6-3.7,0.6c-1.2,0-2.3-0.2-3.3-0.7s-1.7-1.2-2.3-2.1c-0.5-0.9-0.8-2.3-0.8-4.3 v-9.7h-3.4v-2.6h3.4v-4.5h3.3v4.5h5.8v2.6h-5.8v8.8c0,1.7,0.1,2.8,0.4,3.5c0.3,0.7,0.7,1.1,1.3,1.4s1.3,0.4,2.1,0.4 C196.9,88.1,197.9,87.9,199.2,87.5z"></path> <path class="st4" d="M213.6,85.3h3.3v0.2c0,0.8-0.4,1.7-1.1,2.6s-1.6,1.5-2.8,2c-1.1,0.4-2.5,0.7-3.9,0.7c-3,0-5.3-0.9-7-2.8 s-2.5-4.2-2.5-7.1c0-2.9,0.9-5.3,2.6-7.2s4-2.9,6.7-2.9c1.5,0,2.9,0.3,4.1,0.9s2.2,1.6,2.9,2.9c0.7,1.3,1.1,3.1,1.1,5.5v1.1h-14 c0,2,0.6,3.7,1.7,5s2.7,2,4.7,2c1.4,0,2.5-0.3,3.2-0.8c0.7-0.5,1-1.1,1-1.8L213.6,85.3L213.6,85.3z M203.1,78.8h10.7v-0.4 c0-0.9-0.2-1.7-0.7-2.6s-1.1-1.4-1.8-1.8s-1.7-0.6-2.7-0.6c-1.2,0-2.4,0.5-3.4,1.4C204.2,75.8,203.5,77.1,203.1,78.8z"></path> <path class="st4" d="M231.2,90.2c-0.4-1-0.5-1.9-0.5-2.6c-1.4,1.4-2.7,2.2-3.7,2.6s-2,0.6-2.9,0.6c-1.6,0-2.9-0.5-4-1.4 c-1.1-0.9-1.7-2.2-1.7-3.8c0-1.8,0.8-3.2,2.4-4.2s4.3-1.8,8.2-2.6l1.8-0.3v-2.1c0-1.2-0.4-2-1.2-2.4s-1.8-0.7-2.9-0.7 c-1.4,0-2.4,0.3-3.2,0.9c-0.8,0.6-1.2,1.2-1.2,2v0.3h-3.6v-0.2c0-0.8,0.4-1.7,1.1-2.6s1.7-1.6,2.9-2c1.2-0.4,2.6-0.7,4-0.7 s2.8,0.2,3.9,0.6c1.2,0.4,2,1,2.6,1.7c0.5,0.7,0.8,2.1,0.8,4.1v7.3c0,0.8,0,1.7,0.1,2.5s0.2,1.9,0.6,3.1L231.2,90.2L231.2,90.2z M230.6,80.7l-1,0.2c-3.3,0.8-5.5,1.5-6.4,2.2c-0.9,0.7-1.4,1.5-1.4,2.5c0,0.5,0.1,0.9,0.4,1.4s0.7,0.8,1.2,1s1.1,0.4,1.6,0.4 c0.9,0,1.8-0.3,2.7-0.8c0.9-0.5,1.6-1.2,2.1-2.1s0.8-1.9,0.8-3L230.6,80.7L230.6,80.7z"></path> <path class="st4" d="M239.7,90.2h-3.3V71.3h3.3v3.4c0.7-1.1,1.3-1.9,1.9-2.4c0.6-0.5,1.3-0.9,2-1.1c0.7-0.2,1.5-0.4,2.3-0.4 s1.6,0.1,2.3,0.4s1.4,0.6,1.9,1.1c0.5,0.5,1.1,1.3,1.6,2.5c0.7-1.1,1.4-1.9,2-2.4c0.7-0.5,1.3-0.9,2-1.1s1.4-0.4,2.2-0.4 c1.1,0,2.1,0.2,3,0.8s1.6,1.2,2.1,2.1s0.7,2.5,0.7,4.7v11.8h-3.3V79.7c0-2.2-0.1-3.6-0.4-4.2c-0.3-0.6-0.7-1-1.2-1.3 s-1.1-0.5-1.8-0.5c-1,0-1.9,0.3-2.7,0.9c-0.8,0.6-1.5,1.4-2,2.3s-0.8,2.4-0.8,4.1v9.2h-3.3V79.7c0-2.2-0.1-3.6-0.4-4.2 c-0.2-0.6-0.6-1-1.2-1.3c-0.6-0.3-1.1-0.5-1.8-0.5c-0.9,0-1.8,0.3-2.7,0.9s-1.6,1.4-2,2.4c-0.5,1-0.7,2.3-0.7,4L239.7,90.2 L239.7,90.2z"></path> </g> <rect x="189.5" y="234.3" class="st4" width="74.5" height="16.2"></rect> <rect x="189.5" y="180.7" class="st4" width="74.5" height="16.2"></rect> <rect x="189.5" y="127.1" class="st4" width="74.5" height="16.4"></rect> <rect x="153.9" y="67.9" class="st4" width="16.4" height="182.9"></rect> </svg> 